HIERARCHY
ROOT Hips
{
	OFFSET 0.000000 0.000000 0.000000
	CHANNELS 6 Xposition Yposition Zposition Xrotation Yrotation Zrotation
	JOINT LeftUpLeg_virtual
	{
		OFFSET 0.000000 0.000000 0.000000
		CHANNELS 3 Xrotation Yrotation Zrotation
		JOINT LeftUpLeg
		{
			OFFSET 10.205400 -3.823500 0.155100
			CHANNELS 3 Xrotation Yrotation Zrotation
			JOINT LeftLeg
			{
				OFFSET 0.708757 -12.982077 0.567790
				CHANNELS 3 Xrotation Yrotation Zrotation
				JOINT LeftFoot
				{
					OFFSET -0.708756 -10.717838 -2.184338
					CHANNELS 3 Xrotation Yrotation Zrotation
					JOINT LeftToeBase
					{
						OFFSET 0.108149 -7.191104 7.560241
						CHANNELS 3 Xrotation Yrotation Zrotation
						JOINT LeftToe_End
						{
							OFFSET 0.070230 0.081724 4.490308
							CHANNELS 3 Xrotation Yrotation Zrotation
							End Site
							{
								OFFSET 0 0 0
							}
						}
					}
				}
			}
		}
	}
	JOINT RightUpLeg_virtual
	{
		OFFSET 0.000000 0.000000 0.000000
		CHANNELS 3 Xrotation Yrotation Zrotation
		JOINT RightUpLeg
		{
			OFFSET -10.205400 -3.823500 0.005500
			CHANNELS 3 Xrotation Yrotation Zrotation
			JOINT RightLeg
			{
				OFFSET -0.708756 -12.982134 0.610632
				CHANNELS 3 Xrotation Yrotation Zrotation
				JOINT RightFoot
				{
					OFFSET 0.708754 -10.717769 -1.945823
					CHANNELS 3 Xrotation Yrotation Zrotation
					JOINT RightToeBase
					{
						OFFSET -0.108140 -7.191069 7.372968
						CHANNELS 3 Xrotation Yrotation Zrotation
						JOINT RightToe_End
						{
							OFFSET -0.070227 0.081735 4.479403
							CHANNELS 3 Xrotation Yrotation Zrotation
							End Site
							{
								OFFSET 0 0 0
							}
						}
					}
				}
			}
		}
	}
	JOINT Spine_virtual
	{
		OFFSET 0.000000 0.000000 0.000000
		CHANNELS 3 Xrotation Yrotation Zrotation
		JOINT Spine
		{
			OFFSET 0.000000 6.876099 0.125700
			CHANNELS 3 Xrotation Yrotation Zrotation
			JOINT Spine1
			{
				OFFSET 0.000000 5.730043 0.104720
				CHANNELS 3 Xrotation Yrotation Zrotation
				JOINT Spine1_split
				{
					OFFSET 0.000000 5.730043 0.104720
					CHANNELS 3 Xrotation Yrotation Zrotation
					JOINT Spine2
					{
						OFFSET 0.000000 5.730043 0.104720
						CHANNELS 3 Xrotation Yrotation Zrotation
						JOINT Neck_virtual
						{
							OFFSET 0.000000 0.000000 0.000000
							CHANNELS 3 Xrotation Yrotation Zrotation
							JOINT Neck
							{
								OFFSET 0.000000 10.314075 0.188496
								CHANNELS 3 Xrotation Yrotation Zrotation
								JOINT Head
								{
									OFFSET 0.000000 7.643700 -2.377400
									CHANNELS 3 Xrotation Yrotation Zrotation
									JOINT HeadTop_End
									{
										OFFSET 0.000000 43.788605 -13.619600
										CHANNELS 3 Xrotation Yrotation Zrotation
										End Site
										{
											OFFSET 0 0 0
										}
									}
								}
							}
						}
						JOINT LeftShoulder_virtual
						{
							OFFSET 0.000000 0.000000 0.000000
							CHANNELS 3 Xrotation Yrotation Zrotation
							JOINT LeftShoulder
							{
								OFFSET 2.196100 4.412489 0.087492
								CHANNELS 3 Xrotation Yrotation Zrotation
								JOINT LeftShoulder_split
								{
									OFFSET 2.196100 4.412489 0.087492
									CHANNELS 3 Xrotation Yrotation Zrotation
									JOINT LeftArm
									{
										OFFSET 8.771219 -2.981674 -0.026999
										CHANNELS 3 Xrotation Yrotation Zrotation
										JOINT LeftForeArm
										{
											OFFSET 8.512804 0.000000 -0.000000
											CHANNELS 3 Xrotation Yrotation Zrotation
											JOINT LeftHand
											{
												OFFSET 18.484802 0.000000 -0.000000
												CHANNELS 3 Xrotation Yrotation Zrotation
												End Site
												{
													OFFSET 0 0 0
												}
											}
										}
									}
								}
							}
						}
						JOINT RightShoulder_virtual
						{
							OFFSET 0.000000 0.000000 0.000000
							CHANNELS 3 Xrotation Yrotation Zrotation
							JOINT RightShoulder
							{
								OFFSET -2.196100 4.412496 0.070690
								CHANNELS 3 Xrotation Yrotation Zrotation
								JOINT RightShoulder_split
								{
									OFFSET -2.196100 4.412496 0.070690
									CHANNELS 3 Xrotation Yrotation Zrotation
									JOINT RightArm
									{
										OFFSET -8.771282 -2.981682 -0.094208
										CHANNELS 3 Xrotation Yrotation Zrotation
										JOINT RightForeArm
										{
											OFFSET -8.494598 0.000000 0.000000
											CHANNELS 3 Xrotation Yrotation Zrotation
											JOINT RightHand
											{
												OFFSET -18.483803 0.000000 0.000001
												CHANNELS 3 Xrotation Yrotation Zrotation
												End Site
												{
													OFFSET 0 0 0
												}
											}
										}
									}
								}
							}
						}
					}
				}
			}
		}
	}
}
MOTION
Frames: 11
Frame Time: 0.03333333
0.251163 34.166233 -3.895550 0.000000 0.000000 0.000000 -3.298894 -1.578334 -2.076348 -5.199974 31.359687 13.734478 16.948573 0.996328 -1.543721 -16.522410 0.677284 -10.394741 1.431267 -3.584764 -0.583329 0.000000 0.000000 0.000000 -3.072901 1.396327 -2.107774 -2.887025 -4.351750 -11.087978 7.659773 -11.111953 1.173344 -3.925819 -4.604147 20.107223 -3.295111 7.162507 -13.836824 0.000000 0.000000 0.000000 -7.717917 2.884896 -2.780742 12.736941 6.030567 -3.209951 -3.864357 -0.340703 -3.925059 0.204251 -1.040209 0.276782 0.000000 0.000000 0.000000 -12.029742 5.922465 -2.921877 11.796020 62.409911 -23.781269 -87.675696 -18.618700 -130.830115 0.000000 0.000000 0.000000 -16.354435 1.533145 -3.393110 2.592829 -13.109695 -14.822267 7.515846 -3.010697 -4.120870 -14.406898 4.904182 -60.502096 2.185827 9.249218 2.861564 0.000000 0.000000 0.000000 -22.175927 1.208705 -0.595112 7.527101 -11.324987 32.144588 -1.551165 -6.891877 -8.267250 -2.308028 55.349131 79.368697 -48.982586 -42.861694 -25.424387 0.000000 0.000000 0.000000 
0.299358 34.130268 -3.911884 0.000000 0.000000 0.000000 -3.485279 -1.689748 -2.090132 -5.663651 31.290558 13.971335 17.160328 1.016478 -1.640016 -16.221143 0.559754 -10.709124 1.436613 -3.563646 -0.470055 0.000000 0.000000 0.000000 -3.148638 1.508812 -2.162955 -2.875340 -4.435879 -10.967735 7.551952 -11.279221 1.191453 -3.416738 -4.764997 20.128865 -3.308278 7.279289 -13.771601 0.000000 0.000000 0.000000 -7.766576 2.878543 -2.799013 12.813188 6.026037 -3.276467 -3.889510 -0.333386 -3.995913 0.230656 -0.957120 0.261776 0.000000 0.000000 0.000000 -12.182581 5.894932 -2.912228 11.274686 62.336357 -23.279095 -87.693215 -18.842819 -130.890945 0.000000 0.000000 0.000000 -16.471855 1.578423 -3.438097 2.560690 -12.723744 -15.036214 7.368329 -3.155608 -4.038501 -14.339962 4.756461 -60.195584 2.117586 9.292178 2.695466 0.000000 0.000000 0.000000 -22.210310 1.252684 -0.631992 7.369241 -11.302326 32.147754 -1.324562 -6.096544 -8.180249 -2.433626 55.398131 79.903767 -48.803337 -42.549189 -25.137716 0.000000 0.000000 0.000000 
0.358314 34.075191 -3.951012 0.000000 0.000000 0.000000 -3.524525 -1.917752 -2.254961 -6.638154 31.323049 14.483947 17.840101 1.183262 -1.736630 -16.149113 0.414250 -10.408519 1.406169 -3.494048 -0.511885 0.000000 0.000000 0.000000 -3.197913 1.907726 -2.316680 -2.862582 -4.555774 -10.635446 7.516312 -11.420691 1.194303 -2.857309 -5.113147 20.078972 -3.713397 7.401774 -13.514839 0.000000 0.000000 0.000000 -7.931417 3.087003 -2.895246 12.810239 6.024354 -3.350625 -3.897603 -0.245479 -4.038812 0.205781 -0.902782 0.250797 0.000000 0.000000 0.000000 -12.328450 5.929952 -2.874475 10.791623 62.223624 -22.678240 -87.802130 -19.259716 -130.599296 0.000000 0.000000 0.000000 -16.544914 1.696534 -3.428233 2.565171 -12.406508 -15.122160 7.334216 -3.435338 -4.088585 -14.390739 4.663097 -59.529265 2.212187 9.122541 2.474183 0.000000 0.000000 0.000000 -22.177604 1.369438 -0.640366 7.088185 -11.424963 32.147385 -1.015855 -5.573594 -8.090430 -2.383339 55.725318 80.212553 -48.523023 -42.239573 -24.733483 0.000000 0.000000 0.000000 
0.425296 34.031853 -4.062492 0.000000 0.000000 0.000000 -3.357100 -2.246772 -2.525515 -7.912952 31.378490 15.062635 18.896891 1.434367 -1.796745 -16.273918 0.240870 -9.666996 1.581427 -3.377469 -0.780055 0.000000 0.000000 0.000000 -3.151451 2.522602 -2.517581 -2.806309 -4.647794 -10.129113 7.216155 -11.499746 1.056112 -2.750840 -5.691227 19.615509 -3.959782 7.489058 -13.170275 0.000000 0.000000 0.000000 -7.986757 3.380411 -3.030866 12.689626 6.037851 -3.450162 -3.881443 -0.088397 -4.033601 0.136512 -0.865012 0.250369 0.000000 0.000000 0.000000 -12.430034 6.027236 -2.808151 10.346518 62.084999 -22.007003 -87.982126 -19.841708 -129.973705 0.000000 0.000000 0.000000 -16.541374 1.877920 -3.368690 2.589343 -12.232931 -15.170537 7.438721 -3.846387 -4.149792 -14.614706 4.469480 -58.658457 2.451375 8.808061 2.191111 0.000000 0.000000 0.000000 -22.061117 1.553462 -0.619016 6.722811 -11.692523 32.138147 -0.754735 -5.486067 -7.814336 -2.124318 56.173624 80.162153 -48.141571 -42.002177 -24.223051 0.000000 0.000000 0.000000 
0.519542 34.021767 -4.250271 0.000000 0.000000 0.000000 -2.926947 -2.463885 -2.811490 -9.285226 31.392437 15.530149 20.073777 1.630536 -1.781472 -16.377001 0.006093 -8.876255 1.958256 -3.225282 -1.233191 0.000000 0.000000 0.000000 -2.964549 3.109535 -2.720365 -2.869818 -4.676006 -9.566718 6.670013 -11.450816 0.766780 -3.003606 -6.341222 18.652869 -3.644344 7.556074 -12.894038 0.000000 0.000000 0.000000 -7.798321 3.614837 -3.137155 12.470577 6.074200 -3.610648 -3.843672 0.119361 -3.981501 0.091090 -0.829182 0.246518 0.000000 0.000000 0.000000 -12.456288 6.170416 -2.720773 9.845502 61.940445 -21.239296 -88.214857 -20.521481 -129.043898 0.000000 0.000000 0.000000 -16.456914 2.105373 -3.286288 2.621027 -12.190335 -15.250795 7.580956 -4.218691 -4.084899 -14.982694 3.990092 -57.719306 2.813504 8.368713 1.838379 0.000000 0.000000 0.000000 -21.857471 1.787961 -0.574607 6.317332 -12.067168 32.122260 -0.634589 -5.772475 -7.299107 -1.563625 56.558877 79.666801 -47.645788 -41.909453 -23.624398 0.000000 0.000000 0.000000 
0.654516 34.053497 -4.512981 0.000000 0.000000 0.000000 -2.273094 -2.397410 -3.022944 -10.499958 31.433121 15.669292 21.031426 1.702554 -1.689260 -16.351483 -0.289428 -8.295922 2.248069 -3.066931 -1.687329 0.000000 0.000000 0.000000 -2.658677 3.398684 -2.886980 -3.267864 -4.655578 -9.137184 6.137724 -11.192640 0.466778 -2.823498 -6.804901 17.647699 -3.137088 7.668876 -12.848279 0.000000 0.000000 0.000000 -7.339085 3.713002 -3.193978 12.245780 6.140872 -3.852692 -3.797163 0.357350 -3.900326 0.092733 -0.765418 0.236956 0.000000 0.000000 0.000000 -12.398614 6.339260 -2.619832 9.219622 61.822849 -20.334216 -88.475204 -21.249070 -127.871400 0.000000 0.000000 0.000000 -16.305641 2.348590 -3.216103 2.657477 -12.179963 -15.389794 7.643398 -4.346454 -3.957350 -15.414506 3.138021 -56.828120 3.227125 7.777283 1.406636 0.000000 0.000000 0.000000 -21.568841 2.056708 -0.525915 5.899350 -12.471693 32.082713 -0.679798 -6.137387 -6.618899 -0.688493 56.725117 78.726256 -47.013637 -42.056480 -22.961592 0.000000 0.000000 0.000000 
0.825154 34.112038 -4.774015 0.000000 0.000000 0.000000 -1.561533 -2.128154 -3.114187 -11.316712 31.634390 15.386241 21.528048 1.713065 -1.524705 -16.203770 -0.573347 -8.002361 2.248576 -2.921792 -2.042010 0.000000 0.000000 0.000000 -2.288033 3.330567 -2.968328 -4.200422 -4.550179 -8.954854 5.728597 -10.536997 0.236961 -1.733225 -6.866200 17.279924 -3.195844 7.869034 -13.155392 0.000000 0.000000 0.000000 -6.765826 3.591244 -3.190779 12.157457 6.212308 -4.194502 -3.747670 0.606875 -3.805651 0.110502 -0.700369 0.226081 0.000000 0.000000 0.000000 -12.264997 6.501507 -2.519117 8.339223 61.759274 -19.213558 -88.738412 -21.988920 -126.537737 0.000000 0.000000 0.000000 -16.111081 2.585125 -3.175378 2.700546 -12.069198 -15.553640 7.526480 -4.276586 -3.928093 -15.825862 1.953268 -56.061370 3.606792 7.023064 0.885298 0.000000 0.000000 0.000000 -21.216900 2.335173 -0.483615 5.489247 -12.800579 32.034127 -0.974529 -6.406607 -5.831662 0.342672 56.614748 77.528849 -46.227782 -42.450032 -22.225157 0.000000 0.000000 0.000000 
1.020863 34.164001 -5.038952 0.000000 0.000000 0.000000 -0.968676 -1.824458 -3.050730 -11.689437 32.077044 14.786996 21.574145 1.726385 -1.333084 -15.903855 -0.744226 -8.008915 2.015697 -2.793186 -2.278545 0.000000 0.000000 0.000000 -1.861061 2.756756 -2.957551 -5.702720 -4.283208 -9.059022 5.468568 -9.429771 0.047632 0.058075 -6.426834 17.548055 -3.883231 8.134343 -13.834791 0.000000 0.000000 0.000000 -6.204832 3.129455 -3.105031 12.324640 6.261561 -4.667512 -3.731061 0.837746 -3.726692 0.122374 -0.659604 0.213682 0.000000 0.000000 0.000000 -12.090014 6.635081 -2.431494 7.078574 61.774382 -17.791246 -88.992058 -22.708099 -125.140185 0.000000 0.000000 0.000000 -15.915790 2.805785 -3.165503 2.757211 -11.745500 -15.653667 7.412479 -4.094278 -3.948680 -16.059788 0.576932 -55.400067 3.858698 6.020796 0.287219 0.000000 0.000000 0.000000 -20.832417 2.594659 -0.452982 5.108432 -12.992828 31.987627 -1.436647 -6.570578 -5.122272 1.392998 56.254579 76.274970 -45.266454 -43.004647 -21.364302 0.000000 0.000000 0.000000 
1.236220 34.178204 -5.324324 0.000000 0.000000 0.000000 -0.669783 -1.867749 -2.841298 -11.690867 32.848432 14.091580 21.438048 1.848755 -1.204439 -15.491190 -0.754633 -8.227222 1.704785 -2.687944 -2.355775 0.000000 0.000000 0.000000 -1.481166 1.700985 -2.863275 -7.569332 -3.880318 -9.367282 5.483889 -8.135538 -0.096148 1.904621 -5.688509 17.696593 -4.100796 8.321939 -14.805716 0.000000 0.000000 0.000000 -5.770738 2.227786 -2.950869 12.823373 6.260048 -5.280427 -3.756995 1.040244 -3.667978 0.127095 -0.640306 0.211500 0.000000 0.000000 0.000000 -11.924874 6.737742 -2.360069 5.363605 61.895502 -15.997491 -89.218403 -23.413733 -123.729983 0.000000 0.000000 0.000000 -15.721868 2.997537 -3.170123 2.832605 -11.139309 -15.618056 7.288065 -3.859820 -3.984357 -16.054798 -0.880545 -54.758866 3.914004 4.813123 -0.358995 0.000000 0.000000 0.000000 -20.434282 2.828293 -0.436414 4.767367 -12.985998 31.961057 -1.990802 -6.682875 -4.582129 2.342120 55.680023 75.126446 -44.134828 -43.600127 -20.336366 0.000000 0.000000 0.000000 
1.464308 34.136379 -5.590450 0.000000 0.000000 0.000000 -0.749630 -2.429236 -2.539015 -11.470008 33.912729 13.489171 21.413430 2.070295 -1.169370 -15.031520 -0.654925 -8.655218 1.314799 -2.603848 -2.164257 0.000000 0.000000 0.000000 -1.285496 0.133328 -2.673555 -9.807061 -3.444514 -9.833458 5.801602 -6.807591 -0.167049 3.554154 -4.792693 17.488995 -3.326181 8.310511 -15.938240 0.000000 0.000000 0.000000 -5.544320 0.910461 -2.768238 13.623447 6.165634 -5.997816 -3.813727 1.210018 -3.620743 0.143915 -0.677905 0.207888 0.000000 0.000000 0.000000 -11.794496 6.820992 -2.299644 3.136752 62.120762 -13.792929 -89.388065 -24.145916 -122.318525 0.000000 0.000000 0.000000 -15.508247 3.154246 -3.174940 2.936391 -10.240581 -15.436731 7.100753 -3.654845 -3.994103 -15.778384 -2.304954 -54.067074 3.792939 3.445435 -1.019382 0.000000 0.000000 0.000000 -20.040550 3.030830 -0.417189 4.464367 -12.758311 31.968468 -2.623522 -6.799698 -4.193722 3.096105 54.943756 74.159298 -42.842041 -44.082639 -19.105979 0.000000 0.000000 0.000000 
1.713557 34.056667 -5.871452 0.000000 0.000000 0.000000 -1.197703 -3.415084 -2.231338 -11.156564 35.154239 13.038191 21.577522 2.371550 -1.253420 -14.701395 -0.540105 -9.173483 0.764536 -2.545004 -1.585013 0.000000 0.000000 0.000000 -1.338980 -1.960589 -2.442259 -12.448749 -3.027621 -10.546807 6.410758 -5.307782 -0.092140 5.421157 -3.565136 17.627835 -2.460610 8.148752 -17.104920 0.000000 0.000000 0.000000 -5.454378 -0.782617 -2.629392 14.635600 5.952190 -6.765415 -3.880594 1.352309 -3.558682 0.151701 -0.749356 0.205526 0.000000 0.000000 0.000000 -11.702061 6.894306 -2.209831 0.472757 62.415450 -11.226367 -89.424156 -24.963421 -120.881576 0.000000 0.000000 0.000000 -15.258231 3.271334 -3.156948 3.050878 -9.110169 -15.176399 6.854940 -3.371957 -3.926988 -15.252145 -3.603456 -53.307448 3.553404 1.955940 -1.642646 0.000000 0.000000 0.000000 -19.650225 3.208746 -0.370758 4.189400 -12.324573 31.990581 -3.202860 -6.916422 -3.931237 3.578309 54.119646 73.363164 -41.424032 -44.369780 -17.685025 0.000000 0.000000 0.000000 
